<svg xmlns="http://www.w3.org/2000/svg" viewBox="0 0 512 512">
  <rect width="512" height="512" fill="#570df8"/>
  <path d="M256 96c-88.366 0-160 71.634-160 160s71.634 160 160 160 160-71.634 160-160S344.366 96 256 96zm0 280c-66.168 0-120-53.832-120-120s53.832-120 120-120 120 53.832 120 120-53.832 120-120 120z" fill="#fff"/>
  <circle cx="256" cy="256" r="40" fill="#fff"/>
  <rect x="216" y="180" width="80" height="24" rx="12" fill="#fff"/>
  <rect x="216" y="308" width="80" height="24" rx="12" fill="#fff"/>
  <rect x="180" y="216" width="24" height="80" rx="12" fill="#fff"/>
  <rect x="308" y="216" width="24" height="80" rx="12" fill="#fff"/>
</svg>
